<svg xmlns="http://www.w3.org/2000/svg" width="56" height="56" viewBox="0 0 48 48" style="filter:drop-shadow(0 0 5px rgba(77,232,255,.3))"><g fill="#4de8ff"><polygon points="24,11 21.5,16 26.5,16"></polygon><polygon points="24,11 21.5,16 26.5,16" transform="rotate(60 24 24)"></polygon><polygon points="24,11 21.5,16 26.5,16" transform="rotate(120 24 24)"></polygon><polygon points="24,11 21.5,16 26.5,16" transform="rotate(180 24 24)"></polygon><polygon points="24,11 21.5,16 26.5,16" transform="rotate(240 24 24)"></polygon><polygon points="24,11 21.5,16 26.5,16" transform="rotate(300 24 24)"></polygon><circle cx="24" cy="24" r="7.5"></circle><circle cx="8" cy="38" r="2.5" opacity=".6"></circle><circle cx="40" cy="10" r="2.5" opacity=".6"></circle></g><circle cx="24" cy="24" r="2.5" fill="#0a0d15" opacity=".35"></circle></svg>
